<svg version="1.1" xmlns="http://www.w3.org/2000/svg" xmlns:xlink="http://www.w3.org/1999/xlink">
    <symbol id="burger-icon" viewBox="0 0 24 24">
        <g>
            <path fill-rule="evenodd" clip-rule="evenodd" d="M1.24194 4.47692H22.7581C22.9745 4.47692 23.1522 4.40769 23.2913 4.26923C23.4304 4.13077 23.5 3.95385 23.5 3.73846C23.5 3.50769 23.4304 3.32692 23.2913 3.19615C23.1522 3.06538 22.9745 3 22.7581 3H1.24194C1.02554 3 0.847783 3.06538 0.708669 3.19615C0.569556 3.32692 0.5 3.50769 0.5 3.73846C0.5 3.95385 0.569556 4.13077 0.708669 4.26923C0.847783 4.40769 1.02554 4.47692 1.24194 4.47692ZM22.7581 11.2615H1.24194C1.02554 11.2615 0.847783 11.3308 0.708669 11.4692C0.569556 11.6077 0.5 11.7846 0.5 12C0.5 12.2154 0.569556 12.3923 0.708669 12.5308C0.847783 12.6692 1.02554 12.7385 1.24194 12.7385H22.7581C22.9745 12.7385 23.1522 12.6692 23.2913 12.5308C23.4304 12.3923 23.5 12.2154 23.5 12C23.5 11.7846 23.4304 11.6077 23.2913 11.4692C23.1522 11.3308 22.9745 11.2615 22.7581 11.2615ZM22.7581 19.5231H1.24194C1.02554 19.5231 0.847783 19.5923 0.708669 19.7308C0.569556 19.8692 0.5 20.0462 0.5 20.2615C0.5 20.4923 0.569556 20.6731 0.708669 20.8038C0.847783 20.9346 1.02554 21 1.24194 21H22.7581C22.9745 21 23.1522 20.9346 23.2913 20.8038C23.4304 20.6731 23.5 20.4923 23.5 20.2615C23.5 20.0462 23.4304 19.8692 23.2913 19.7308C23.1522 19.5923 22.9745 19.5231 22.7581 19.5231Z" />
        </g>
    </symbol>

    <symbol id="close-icon" viewBox="0 0 24 24">
        <g>
            <path d="M18.3 7.1C18.6866 6.7134 18.6866 6.0866 18.3 5.7C17.9134 5.3134 17.2866 5.3134 16.9 5.7L12 10.6L7.1 5.7C6.7134 5.3134 6.0866 5.3134 5.7 5.7C5.3134 6.0866 5.3134 6.7134 5.7 7.1L10.6 12L5.7 16.9C5.3134 17.2866 5.3134 17.9134 5.7 18.3C6.0866 18.6866 6.7134 18.6866 7.1 18.3L12 13.4L16.9 18.3C17.2866 18.6866 17.9134 18.6866 18.3 18.3C18.6866 17.9134 18.6866 17.2866 18.3 16.9L13.4 12L18.3 7.1Z"/>
        </g>
    </symbol>
</svg>